<svg xmlns="http://www.w3.org/2000/svg" xmlns:xlink="http://www.w3.org/1999/xlink" width="500" zoomAndPan="magnify" viewBox="0 0 375 374.999991" height="500" preserveAspectRatio="xMidYMid meet" version="1.0"><defs><g/></defs><g fill="#102747" fill-opacity="1"><g transform="translate(35.432434, 238.499984)"><g><path d="M 11.234375 0 C 10.078125 0 9.160156 -0.359375 8.484375 -1.078125 C 7.816406 -1.796875 7.484375 -2.78125 7.484375 -4.03125 L 7.484375 -103.53125 C 7.484375 -104.6875 7.722656 -105.523438 8.203125 -106.046875 C 8.679688 -106.578125 9.453125 -106.84375 10.515625 -106.84375 L 50.828125 -106.84375 C 52.078125 -106.84375 52.960938 -106.675781 53.484375 -106.34375 C 54.015625 -106.007812 54.472656 -105.3125 54.859375 -104.25 L 69.84375 -58.46875 C 70.125 -57.695312 70.457031 -57.3125 70.84375 -57.3125 C 71.132812 -57.3125 71.425781 -57.695312 71.71875 -58.46875 L 85.109375 -102.671875 C 85.867188 -105.453125 87.160156 -106.84375 88.984375 -106.84375 L 130.609375 -106.84375 C 132.335938 -106.84375 133.203125 -105.835938 133.203125 -103.828125 L 133.203125 -4.171875 C 133.203125 -2.640625 132.84375 -1.5625 132.125 -0.9375 C 131.40625 -0.3125 130.226562 0 128.59375 0 L 104.25 0 C 102.8125 0 101.828125 -0.285156 101.296875 -0.859375 C 100.773438 -1.441406 100.515625 -2.351562 100.515625 -3.59375 L 100.515625 -68.25 C 100.515625 -69.019531 100.320312 -69.40625 99.9375 -69.40625 C 99.457031 -69.40625 99.070312 -68.972656 98.78125 -68.109375 L 78.046875 -2.59375 C 77.378906 -0.863281 76.226562 0 74.59375 0 L 59.46875 0 C 57.738281 0 56.585938 -0.863281 56.015625 -2.59375 L 35.28125 -66.953125 C 34.988281 -67.921875 34.648438 -68.40625 34.265625 -68.40625 C 33.785156 -68.40625 33.546875 -67.875 33.546875 -66.8125 L 33.546875 -3.171875 C 33.546875 -1.921875 33.351562 -1.078125 32.96875 -0.640625 C 32.59375 -0.210938 31.734375 0 30.390625 0 Z M 11.234375 0 "/></g></g></g><g fill="#102747" fill-opacity="1"><g transform="translate(184.184432, 238.499984)"><g><path d="M 2.453125 0 C 0.335938 0 -0.429688 -0.910156 0.140625 -2.734375 L 36 -104.25 C 36.289062 -105.019531 36.769531 -105.644531 37.4375 -106.125 C 38.113281 -106.601562 38.882812 -106.84375 39.75 -106.84375 L 51.703125 -106.84375 C 53.710938 -106.84375 54.71875 -106.078125 54.71875 -104.546875 C 54.71875 -104.253906 54.523438 -103.4375 54.140625 -102.09375 L 19.4375 -3.75 C 18.957031 -2.40625 18.304688 -1.441406 17.484375 -0.859375 C 16.671875 -0.285156 15.644531 0 14.40625 0 Z M 2.453125 0 "/></g></g></g><g fill="#102747" fill-opacity="1"><g transform="translate(246.968489, 238.499984)"><g><path d="M 7.484375 -103.53125 C 7.484375 -104.59375 7.722656 -105.410156 8.203125 -105.984375 C 8.679688 -106.554688 9.351562 -106.84375 10.21875 -106.84375 L 37.578125 -106.84375 C 39.304688 -106.84375 40.171875 -105.835938 40.171875 -103.828125 L 40.171875 -25.625 C 40.171875 -24.863281 40.289062 -24.335938 40.53125 -24.046875 C 40.769531 -23.753906 41.226562 -23.609375 41.90625 -23.609375 L 85.25 -23.609375 C 87.457031 -23.609375 88.5625 -22.695312 88.5625 -20.875 L 88.5625 -3.171875 C 88.5625 -2.210938 88.25 -1.441406 87.625 -0.859375 C 87 -0.285156 86.109375 0 84.953125 0 L 11.375 0 C 9.9375 0 8.925781 -0.285156 8.34375 -0.859375 C 7.769531 -1.441406 7.484375 -2.351562 7.484375 -3.59375 Z M 7.484375 -103.53125 "/></g></g></g></svg>