<svg xmlns="http://www.w3.org/2000/svg" xmlns:xlink="http://www.w3.org/1999/xlink" width="500" zoomAndPan="magnify" viewBox="0 0 375 374.999991" height="500" preserveAspectRatio="xMidYMid meet" version="1.0"><defs><g/></defs><g fill="#102747" fill-opacity="1"><g transform="translate(35.432434, 213.31298)"><g><path d="M 11.234375 0 C 10.078125 0 9.160156 -0.359375 8.484375 -1.078125 C 7.816406 -1.796875 7.484375 -2.78125 7.484375 -4.03125 L 7.484375 -103.53125 C 7.484375 -104.6875 7.722656 -105.523438 8.203125 -106.046875 C 8.679688 -106.578125 9.453125 -106.84375 10.515625 -106.84375 L 50.828125 -106.84375 C 52.078125 -106.84375 52.960938 -106.675781 53.484375 -106.34375 C 54.015625 -106.007812 54.472656 -105.3125 54.859375 -104.25 L 69.84375 -58.46875 C 70.125 -57.695312 70.457031 -57.3125 70.84375 -57.3125 C 71.132812 -57.3125 71.425781 -57.695312 71.71875 -58.46875 L 85.109375 -102.671875 C 85.867188 -105.453125 87.160156 -106.84375 88.984375 -106.84375 L 130.609375 -106.84375 C 132.335938 -106.84375 133.203125 -105.835938 133.203125 -103.828125 L 133.203125 -4.171875 C 133.203125 -2.640625 132.84375 -1.5625 132.125 -0.9375 C 131.40625 -0.3125 130.226562 0 128.59375 0 L 104.25 0 C 102.8125 0 101.828125 -0.285156 101.296875 -0.859375 C 100.773438 -1.441406 100.515625 -2.351562 100.515625 -3.59375 L 100.515625 -68.25 C 100.515625 -69.019531 100.320312 -69.40625 99.9375 -69.40625 C 99.457031 -69.40625 99.070312 -68.972656 98.78125 -68.109375 L 78.046875 -2.59375 C 77.378906 -0.863281 76.226562 0 74.59375 0 L 59.46875 0 C 57.738281 0 56.585938 -0.863281 56.015625 -2.59375 L 35.28125 -66.953125 C 34.988281 -67.921875 34.648438 -68.40625 34.265625 -68.40625 C 33.785156 -68.40625 33.546875 -67.875 33.546875 -66.8125 L 33.546875 -3.171875 C 33.546875 -1.921875 33.351562 -1.078125 32.96875 -0.640625 C 32.59375 -0.210938 31.734375 0 30.390625 0 Z M 11.234375 0 "/></g></g></g><g fill="#102747" fill-opacity="1"><g transform="translate(184.184432, 213.31298)"><g><path d="M 2.453125 0 C 0.335938 0 -0.429688 -0.910156 0.140625 -2.734375 L 36 -104.25 C 36.289062 -105.019531 36.769531 -105.644531 37.4375 -106.125 C 38.113281 -106.601562 38.882812 -106.84375 39.75 -106.84375 L 51.703125 -106.84375 C 53.710938 -106.84375 54.71875 -106.078125 54.71875 -104.546875 C 54.71875 -104.253906 54.523438 -103.4375 54.140625 -102.09375 L 19.4375 -3.75 C 18.957031 -2.40625 18.304688 -1.441406 17.484375 -0.859375 C 16.671875 -0.285156 15.644531 0 14.40625 0 Z M 2.453125 0 "/></g></g></g><g fill="#102747" fill-opacity="1"><g transform="translate(246.968489, 213.31298)"><g><path d="M 7.484375 -103.53125 C 7.484375 -104.59375 7.722656 -105.410156 8.203125 -105.984375 C 8.679688 -106.554688 9.351562 -106.84375 10.21875 -106.84375 L 37.578125 -106.84375 C 39.304688 -106.84375 40.171875 -105.835938 40.171875 -103.828125 L 40.171875 -25.625 C 40.171875 -24.863281 40.289062 -24.335938 40.53125 -24.046875 C 40.769531 -23.753906 41.226562 -23.609375 41.90625 -23.609375 L 85.25 -23.609375 C 87.457031 -23.609375 88.5625 -22.695312 88.5625 -20.875 L 88.5625 -3.171875 C 88.5625 -2.210938 88.25 -1.441406 87.625 -0.859375 C 87 -0.285156 86.109375 0 84.953125 0 L 11.375 0 C 9.9375 0 8.925781 -0.285156 8.34375 -0.859375 C 7.769531 -1.441406 7.484375 -2.351562 7.484375 -3.59375 Z M 7.484375 -103.53125 "/></g></g></g><g fill="#102747" fill-opacity="1"><g transform="translate(38.281561, 271.552737)"><g><path d="M 5.78125 0 C 5.289062 0 5.046875 -0.257812 5.046875 -0.78125 L 5.046875 -37.875 C 5.046875 -38.144531 5.085938 -38.332031 5.171875 -38.4375 C 5.265625 -38.539062 5.429688 -38.59375 5.671875 -38.59375 L 10.65625 -38.59375 C 10.9375 -38.59375 11.132812 -38.546875 11.25 -38.453125 C 11.375 -38.367188 11.472656 -38.222656 11.546875 -38.015625 L 23.09375 -8.21875 C 23.195312 -7.90625 23.316406 -7.75 23.453125 -7.75 C 23.628906 -7.75 23.785156 -7.921875 23.921875 -8.265625 L 35.46875 -37.921875 C 35.570312 -38.367188 35.832031 -38.59375 36.25 -38.59375 L 41.515625 -38.59375 C 41.890625 -38.59375 42.078125 -38.367188 42.078125 -37.921875 L 42.078125 -0.78125 C 42.078125 -0.257812 41.816406 0 41.296875 0 L 37.875 0 C 37.351562 0 37.09375 -0.222656 37.09375 -0.671875 L 37.09375 -30.421875 C 37.09375 -30.597656 37.066406 -30.675781 37.015625 -30.65625 C 36.960938 -30.644531 36.898438 -30.566406 36.828125 -30.421875 L 25.390625 -0.671875 C 25.179688 -0.222656 24.847656 0 24.390625 0 L 21.90625 0 C 21.382812 0 21.035156 -0.207031 20.859375 -0.625 L 9.578125 -30.109375 C 9.535156 -30.285156 9.476562 -30.375 9.40625 -30.375 C 9.34375 -30.375 9.3125 -30.285156 9.3125 -30.109375 L 9.3125 -0.671875 C 9.3125 -0.429688 9.257812 -0.257812 9.15625 -0.15625 C 9.050781 -0.0507812 8.859375 0 8.578125 0 Z M 5.78125 0 "/></g></g></g><g fill="#102747" fill-opacity="1"><g transform="translate(86.963587, 271.552737)"><g><path d="M 20.03125 -3.328125 C 17.351562 -0.765625 14.265625 0.515625 10.765625 0.515625 C 8.054688 0.515625 5.929688 -0.164062 4.390625 -1.53125 C 2.847656 -2.90625 2.078125 -4.734375 2.078125 -7.015625 C 2.078125 -9.796875 3.25 -11.984375 5.59375 -13.578125 C 7.9375 -15.171875 11.328125 -16.109375 15.765625 -16.390625 L 19.8125 -16.703125 C 20.40625 -16.765625 20.703125 -17.023438 20.703125 -17.484375 L 20.703125 -18.875 C 20.703125 -20.75 20.117188 -22.234375 18.953125 -23.328125 C 17.796875 -24.421875 16.226562 -24.96875 14.25 -24.96875 C 11.195312 -24.96875 8.703125 -23.582031 6.765625 -20.8125 C 6.660156 -20.632812 6.554688 -20.519531 6.453125 -20.46875 C 6.347656 -20.414062 6.207031 -20.425781 6.03125 -20.5 L 3.21875 -21.4375 C 3.050781 -21.5 2.96875 -21.617188 2.96875 -21.796875 C 2.96875 -21.898438 3.019531 -22.054688 3.125 -22.265625 C 4.164062 -24.097656 5.644531 -25.523438 7.5625 -26.546875 C 9.488281 -27.578125 11.769531 -28.09375 14.40625 -28.09375 C 17.800781 -28.09375 20.398438 -27.300781 22.203125 -25.71875 C 24.015625 -24.144531 24.921875 -21.96875 24.921875 -19.1875 L 24.921875 -0.78125 C 24.921875 -0.46875 24.867188 -0.257812 24.765625 -0.15625 C 24.660156 -0.0507812 24.46875 0 24.1875 0 L 21.59375 0 C 21.175781 0 20.929688 -0.273438 20.859375 -0.828125 L 20.75 -3.21875 C 20.71875 -3.46875 20.632812 -3.59375 20.5 -3.59375 C 20.351562 -3.59375 20.195312 -3.503906 20.03125 -3.328125 Z M 20.703125 -13.21875 C 20.703125 -13.769531 20.441406 -14.046875 19.921875 -14.046875 L 16.546875 -13.734375 C 13.316406 -13.523438 10.828125 -12.898438 9.078125 -11.859375 C 7.328125 -10.816406 6.453125 -9.378906 6.453125 -7.546875 C 6.453125 -6.054688 6.976562 -4.875 8.03125 -4 C 9.09375 -3.132812 10.507812 -2.703125 12.28125 -2.703125 C 13.351562 -2.703125 14.410156 -2.890625 15.453125 -3.265625 C 16.492188 -3.648438 17.410156 -4.175781 18.203125 -4.84375 C 19.003906 -5.46875 19.617188 -6.132812 20.046875 -6.84375 C 20.484375 -7.550781 20.703125 -8.234375 20.703125 -8.890625 Z M 20.703125 -13.21875 "/></g></g></g><g fill="#102747" fill-opacity="1"><g transform="translate(117.025865, 271.552737)"><g><path d="M 4.734375 0 C 4.242188 0 4 -0.222656 4 -0.671875 L 4 -26.890625 C 4 -27.335938 4.191406 -27.5625 4.578125 -27.5625 L 7.59375 -27.5625 C 7.976562 -27.5625 8.171875 -27.375 8.171875 -27 L 8.171875 -23.609375 C 8.171875 -23.398438 8.226562 -23.28125 8.34375 -23.25 C 8.46875 -23.21875 8.597656 -23.285156 8.734375 -23.453125 C 11.367188 -26.546875 14.054688 -28.09375 16.796875 -28.09375 C 18.015625 -28.09375 18.625 -27.863281 18.625 -27.40625 L 18.625 -24.296875 C 18.625 -23.941406 18.46875 -23.800781 18.15625 -23.875 C 17.53125 -23.976562 16.75 -24.03125 15.8125 -24.03125 C 14.800781 -24.03125 13.707031 -23.734375 12.53125 -23.140625 C 11.351562 -22.554688 10.363281 -21.796875 9.5625 -20.859375 C 8.769531 -19.921875 8.375 -18.96875 8.375 -18 L 8.375 -0.78125 C 8.375 -0.257812 8.113281 0 7.59375 0 Z M 4.734375 0 "/></g></g></g><g fill="#102747" fill-opacity="1"><g transform="translate(138.506411, 271.552737)"><g><path d="M 26.421875 -27.5625 C 26.660156 -27.5625 26.820312 -27.484375 26.90625 -27.328125 C 27 -27.171875 27.007812 -27.007812 26.9375 -26.84375 L 16.390625 -0.78125 C 16.210938 -0.257812 15.8125 0 15.1875 0 L 13.3125 0 C 12.65625 0 12.222656 -0.242188 12.015625 -0.734375 L 1.515625 -26.78125 C 1.472656 -26.851562 1.453125 -26.941406 1.453125 -27.046875 C 1.453125 -27.390625 1.660156 -27.5625 2.078125 -27.5625 L 5.3125 -27.5625 C 5.6875 -27.5625 5.960938 -27.375 6.140625 -27 L 14.296875 -6.546875 C 14.398438 -6.203125 14.523438 -6.03125 14.671875 -6.03125 C 14.804688 -6.03125 14.960938 -6.222656 15.140625 -6.609375 L 23.25 -27 C 23.351562 -27.375 23.613281 -27.5625 24.03125 -27.5625 Z M 26.421875 -27.5625 "/></g></g></g><g fill="#102747" fill-opacity="1"><g transform="translate(168.516685, 271.552737)"><g><path d="M 8.578125 -33.5 C 8.578125 -33.15625 8.507812 -32.90625 8.375 -32.75 C 8.238281 -32.59375 7.992188 -32.515625 7.640625 -32.515625 L 4.625 -32.515625 C 4.101562 -32.515625 3.84375 -32.804688 3.84375 -33.390625 L 3.84375 -37.765625 C 3.84375 -38.316406 4.085938 -38.59375 4.578125 -38.59375 L 7.859375 -38.59375 C 8.066406 -38.59375 8.238281 -38.519531 8.375 -38.375 C 8.507812 -38.238281 8.578125 -38.050781 8.578125 -37.8125 Z M 8.375 -0.890625 C 8.375 -0.535156 8.300781 -0.296875 8.15625 -0.171875 C 8.019531 -0.0546875 7.78125 0 7.4375 0 L 4.78125 0 C 4.46875 0 4.257812 -0.0507812 4.15625 -0.15625 C 4.050781 -0.257812 4 -0.453125 4 -0.734375 L 4 -26.84375 C 4 -27.320312 4.207031 -27.5625 4.625 -27.5625 L 7.796875 -27.5625 C 8.179688 -27.5625 8.375 -27.335938 8.375 -26.890625 Z M 8.375 -0.890625 "/></g></g></g><g fill="#102747" fill-opacity="1"><g transform="translate(182.507728, 271.552737)"><g><path d="M 4.734375 0 C 4.242188 0 4 -0.222656 4 -0.671875 L 4 -26.890625 C 4 -27.335938 4.191406 -27.5625 4.578125 -27.5625 L 7.703125 -27.5625 C 8.078125 -27.5625 8.265625 -27.375 8.265625 -27 L 8.265625 -23.984375 C 8.265625 -23.597656 8.421875 -23.546875 8.734375 -23.828125 C 10.679688 -25.347656 12.335938 -26.4375 13.703125 -27.09375 C 15.078125 -27.757812 16.613281 -28.09375 18.3125 -28.09375 C 20.945312 -28.09375 23 -27.378906 24.46875 -25.953125 C 25.945312 -24.535156 26.6875 -22.628906 26.6875 -20.234375 L 26.6875 -0.828125 C 26.6875 -0.273438 26.425781 0 25.90625 0 L 22.984375 0 C 22.535156 0 22.3125 -0.222656 22.3125 -0.671875 L 22.3125 -19.25 C 22.3125 -20.976562 21.867188 -22.3125 20.984375 -23.25 C 20.097656 -24.1875 18.738281 -24.65625 16.90625 -24.65625 C 15.445312 -24.65625 14.101562 -24.332031 12.875 -23.6875 C 11.644531 -23.050781 10.144531 -21.96875 8.375 -20.4375 L 8.375 -0.78125 C 8.375 -0.5 8.3125 -0.296875 8.1875 -0.171875 C 8.070312 -0.0546875 7.875 0 7.59375 0 Z M 4.734375 0 "/></g></g></g><g fill="#102747" fill-opacity="1"><g transform="translate(214.442382, 271.552737)"><g><path d="M 5.046875 -37.875 C 5.046875 -38.351562 5.253906 -38.59375 5.671875 -38.59375 L 9.421875 -38.59375 C 9.828125 -38.59375 10.03125 -38.367188 10.03125 -37.921875 L 10.03125 -4.375 C 10.03125 -4.164062 10.066406 -4.023438 10.140625 -3.953125 C 10.210938 -3.878906 10.351562 -3.84375 10.5625 -3.84375 L 28.5625 -3.84375 C 28.769531 -3.84375 28.925781 -3.804688 29.03125 -3.734375 C 29.132812 -3.671875 29.1875 -3.535156 29.1875 -3.328125 L 29.1875 -0.578125 C 29.1875 -0.191406 28.976562 0 28.5625 0 L 5.78125 0 C 5.5 0 5.304688 -0.0507812 5.203125 -0.15625 C 5.097656 -0.257812 5.046875 -0.453125 5.046875 -0.734375 Z M 5.046875 -37.875 "/></g></g></g><g fill="#102747" fill-opacity="1"><g transform="translate(247.313241, 271.552737)"><g><path d="M 20.03125 -3.328125 C 17.351562 -0.765625 14.265625 0.515625 10.765625 0.515625 C 8.054688 0.515625 5.929688 -0.164062 4.390625 -1.53125 C 2.847656 -2.90625 2.078125 -4.734375 2.078125 -7.015625 C 2.078125 -9.796875 3.25 -11.984375 5.59375 -13.578125 C 7.9375 -15.171875 11.328125 -16.109375 15.765625 -16.390625 L 19.8125 -16.703125 C 20.40625 -16.765625 20.703125 -17.023438 20.703125 -17.484375 L 20.703125 -18.875 C 20.703125 -20.75 20.117188 -22.234375 18.953125 -23.328125 C 17.796875 -24.421875 16.226562 -24.96875 14.25 -24.96875 C 11.195312 -24.96875 8.703125 -23.582031 6.765625 -20.8125 C 6.660156 -20.632812 6.554688 -20.519531 6.453125 -20.46875 C 6.347656 -20.414062 6.207031 -20.425781 6.03125 -20.5 L 3.21875 -21.4375 C 3.050781 -21.5 2.96875 -21.617188 2.96875 -21.796875 C 2.96875 -21.898438 3.019531 -22.054688 3.125 -22.265625 C 4.164062 -24.097656 5.644531 -25.523438 7.5625 -26.546875 C 9.488281 -27.578125 11.769531 -28.09375 14.40625 -28.09375 C 17.800781 -28.09375 20.398438 -27.300781 22.203125 -25.71875 C 24.015625 -24.144531 24.921875 -21.96875 24.921875 -19.1875 L 24.921875 -0.78125 C 24.921875 -0.46875 24.867188 -0.257812 24.765625 -0.15625 C 24.660156 -0.0507812 24.46875 0 24.1875 0 L 21.59375 0 C 21.175781 0 20.929688 -0.273438 20.859375 -0.828125 L 20.75 -3.21875 C 20.71875 -3.46875 20.632812 -3.59375 20.5 -3.59375 C 20.351562 -3.59375 20.195312 -3.503906 20.03125 -3.328125 Z M 20.703125 -13.21875 C 20.703125 -13.769531 20.441406 -14.046875 19.921875 -14.046875 L 16.546875 -13.734375 C 13.316406 -13.523438 10.828125 -12.898438 9.078125 -11.859375 C 7.328125 -10.816406 6.453125 -9.378906 6.453125 -7.546875 C 6.453125 -6.054688 6.976562 -4.875 8.03125 -4 C 9.09375 -3.132812 10.507812 -2.703125 12.28125 -2.703125 C 13.351562 -2.703125 14.410156 -2.890625 15.453125 -3.265625 C 16.492188 -3.648438 17.410156 -4.175781 18.203125 -4.84375 C 19.003906 -5.46875 19.617188 -6.132812 20.046875 -6.84375 C 20.484375 -7.550781 20.703125 -8.234375 20.703125 -8.890625 Z M 20.703125 -13.21875 "/></g></g></g><g fill="#102747" fill-opacity="1"><g transform="translate(277.375531, 271.552737)"><g><path d="M 4.84375 0 C 4.53125 0 4.3125 -0.0546875 4.1875 -0.171875 C 4.0625 -0.296875 4 -0.515625 4 -0.828125 L 4 -37.875 C 4 -38.351562 4.207031 -38.59375 4.625 -38.59375 L 7.859375 -38.59375 C 8.203125 -38.59375 8.375 -38.351562 8.375 -37.875 L 8.375 -25.125 C 8.375 -24.738281 8.460938 -24.546875 8.640625 -24.546875 C 8.742188 -24.546875 8.914062 -24.632812 9.15625 -24.8125 C 11.476562 -27 14.253906 -28.09375 17.484375 -28.09375 C 21.117188 -28.09375 23.878906 -26.78125 25.765625 -24.15625 C 27.660156 -21.539062 28.609375 -18.132812 28.609375 -13.9375 C 28.609375 -9.46875 27.554688 -5.941406 25.453125 -3.359375 C 23.359375 -0.773438 20.457031 0.515625 16.75 0.515625 C 14.632812 0.515625 12.882812 0.09375 11.5 -0.75 C 10.113281 -1.601562 9.035156 -2.550781 8.265625 -3.59375 C 8.160156 -3.726562 8.054688 -3.796875 7.953125 -3.796875 C 7.816406 -3.796875 7.734375 -3.675781 7.703125 -3.4375 L 7.4375 -0.828125 C 7.363281 -0.515625 7.265625 -0.296875 7.140625 -0.171875 C 7.023438 -0.0546875 6.8125 0 6.5 0 Z M 8.375 -9.3125 C 8.375 -8.09375 8.726562 -6.972656 9.4375 -5.953125 C 10.144531 -4.929688 11.070312 -4.113281 12.21875 -3.5 C 13.363281 -2.894531 14.5625 -2.59375 15.8125 -2.59375 C 18.3125 -2.59375 20.3125 -3.53125 21.8125 -5.40625 C 23.320312 -7.28125 24.078125 -10.09375 24.078125 -13.84375 C 24.078125 -17.375 23.398438 -20.101562 22.046875 -22.03125 C 20.703125 -23.957031 18.742188 -24.921875 16.171875 -24.921875 C 14.617188 -24.921875 13.171875 -24.570312 11.828125 -23.875 C 10.492188 -23.175781 9.34375 -22.238281 8.375 -21.0625 Z M 8.375 -9.3125 "/></g></g></g><g fill="#102747" fill-opacity="1"><g transform="translate(310.090342, 271.552737)"><g><path d="M 20.546875 -21.484375 C 19.816406 -22.554688 18.816406 -23.410156 17.546875 -24.046875 C 16.285156 -24.691406 14.820312 -25.015625 13.15625 -25.015625 C 11.25 -25.015625 9.6875 -24.609375 8.46875 -23.796875 C 7.257812 -22.984375 6.65625 -21.914062 6.65625 -20.59375 C 6.65625 -19.800781 6.957031 -19.082031 7.5625 -18.4375 C 8.175781 -17.800781 9.28125 -17.238281 10.875 -16.75 L 17.484375 -14.765625 C 19.765625 -14.148438 21.457031 -13.222656 22.5625 -11.984375 C 23.675781 -10.753906 24.234375 -9.289062 24.234375 -7.59375 C 24.234375 -6 23.75 -4.585938 22.78125 -3.359375 C 21.8125 -2.128906 20.476562 -1.175781 18.78125 -0.5 C 17.082031 0.175781 15.15625 0.515625 13 0.515625 C 10.332031 0.515625 7.957031 -0.0078125 5.875 -1.0625 C 3.789062 -2.125 2.316406 -3.503906 1.453125 -5.203125 C 1.347656 -5.378906 1.296875 -5.519531 1.296875 -5.625 C 1.296875 -5.789062 1.382812 -5.925781 1.5625 -6.03125 L 3.59375 -7.171875 C 3.9375 -7.378906 4.195312 -7.363281 4.375 -7.125 C 6.238281 -4.144531 9.132812 -2.65625 13.0625 -2.65625 C 15.101562 -2.6875 16.789062 -3.109375 18.125 -3.921875 C 19.457031 -4.742188 20.125 -5.8125 20.125 -7.125 C 20.125 -8.09375 19.722656 -8.90625 18.921875 -9.5625 C 18.128906 -10.226562 16.832031 -10.820312 15.03125 -11.34375 L 9.671875 -12.84375 C 7.140625 -13.507812 5.328125 -14.429688 4.234375 -15.609375 C 3.140625 -16.785156 2.59375 -18.222656 2.59375 -19.921875 C 2.59375 -21.515625 3.035156 -22.9375 3.921875 -24.1875 C 4.804688 -25.4375 6.054688 -26.398438 7.671875 -27.078125 C 9.285156 -27.753906 11.132812 -28.09375 13.21875 -28.09375 C 15.5 -28.09375 17.550781 -27.65625 19.375 -26.78125 C 21.195312 -25.914062 22.59375 -24.738281 23.5625 -23.25 C 23.800781 -22.90625 23.785156 -22.660156 23.515625 -22.515625 L 21.328125 -21.328125 C 21.191406 -21.253906 21.085938 -21.21875 21.015625 -21.21875 C 20.878906 -21.21875 20.722656 -21.304688 20.546875 -21.484375 Z M 20.546875 -21.484375 "/></g></g></g></svg>